<mxfile host="Electron" agent="Mozilla/5.0 (Windows NT 10.0; Win64; x64) AppleWebKit/537.36 (KHTML, like Gecko) draw.io/28.0.6 Chrome/138.0.7204.100 Electron/37.2.3 Safari/537.36" version="28.0.6">
  <diagram name="Page-1" id="J0jDcTdTuW3iA6Uvwu4c">
    <mxGraphModel dx="763" dy="456" grid="0" gridSize="10" guides="1" tooltips="1" connect="1" arrows="1" fold="1" page="1" pageScale="1" pageWidth="850" pageHeight="1100" background="#FFFFFF" math="0" shadow="0">
      <root>
        <mxCell id="0" />
        <mxCell id="1" parent="0" />
        <mxCell id="Pph7oQHx4fXSbqczSDpd-2" value="" style="shape=umlLifeline;perimeter=lifelinePerimeter;whiteSpace=wrap;html=1;container=1;dropTarget=0;collapsible=0;recursiveResize=0;outlineConnect=0;portConstraint=eastwest;newEdgeStyle={&quot;curved&quot;:0,&quot;rounded&quot;:0};participant=umlActor;fillColor=#eeeeee;strokeColor=#36393d;fontColor=light-dark(#000000,#000000);" parent="1" vertex="1">
          <mxGeometry x="124.5" y="76" width="20" height="330" as="geometry" />
        </mxCell>
        <mxCell id="Pph7oQHx4fXSbqczSDpd-3" value=":CertificateNFT" style="shape=umlLifeline;perimeter=lifelinePerimeter;whiteSpace=wrap;html=1;container=1;dropTarget=0;collapsible=0;recursiveResize=0;outlineConnect=0;portConstraint=eastwest;newEdgeStyle={&quot;curved&quot;:0,&quot;rounded&quot;:0};fillColor=#eeeeee;strokeColor=#36393d;fontColor=light-dark(#000000,#000000);" parent="1" vertex="1">
          <mxGeometry x="335.5" y="75" width="100" height="330" as="geometry" />
        </mxCell>
        <mxCell id="Pph7oQHx4fXSbqczSDpd-10" value="" style="html=1;points=[[0,0,0,0,5],[0,1,0,0,-5],[1,0,0,0,5],[1,1,0,0,-5]];perimeter=orthogonalPerimeter;outlineConnect=0;targetShapes=umlLifeline;portConstraint=eastwest;newEdgeStyle={&quot;curved&quot;:0,&quot;rounded&quot;:0};fillColor=#eeeeee;strokeColor=#36393d;fontColor=light-dark(#000000,#000000);" parent="Pph7oQHx4fXSbqczSDpd-3" vertex="1">
          <mxGeometry x="42" y="74" width="13" height="230" as="geometry" />
        </mxCell>
        <mxCell id="Pph7oQHx4fXSbqczSDpd-13" value="" style="html=1;points=[[0,0,0,0,5],[0,1,0,0,-5],[1,0,0,0,5],[1,1,0,0,-5]];perimeter=orthogonalPerimeter;outlineConnect=0;targetShapes=umlLifeline;portConstraint=eastwest;newEdgeStyle={&quot;curved&quot;:0,&quot;rounded&quot;:0};fillColor=#eeeeee;strokeColor=#36393d;fontColor=light-dark(#000000,#000000);" parent="Pph7oQHx4fXSbqczSDpd-3" vertex="1">
          <mxGeometry x="49.5" y="110" width="10" height="40" as="geometry" />
        </mxCell>
        <mxCell id="Pph7oQHx4fXSbqczSDpd-14" value="retriveCertificateInfo(_certificateId)" style="html=1;align=left;spacingLeft=2;endArrow=block;rounded=0;edgeStyle=orthogonalEdgeStyle;curved=0;rounded=0;fillColor=#eeeeee;strokeColor=#36393d;fontColor=light-dark(#000000,#000000);labelBackgroundColor=none;" parent="Pph7oQHx4fXSbqczSDpd-3" target="Pph7oQHx4fXSbqczSDpd-13" edge="1">
          <mxGeometry x="-0.0029" relative="1" as="geometry">
            <mxPoint x="54.5" y="99" as="sourcePoint" />
            <Array as="points">
              <mxPoint x="89.5" y="99" />
              <mxPoint x="89.5" y="117" />
            </Array>
            <mxPoint as="offset" />
          </mxGeometry>
        </mxCell>
        <mxCell id="Pph7oQHx4fXSbqczSDpd-11" value="getCertificateDetails(_certificateId)" style="html=1;verticalAlign=bottom;endArrow=block;curved=0;rounded=0;entryX=0;entryY=0;entryDx=0;entryDy=5;fillColor=#eeeeee;strokeColor=#36393d;fontColor=light-dark(#000000,#000000);labelBackgroundColor=none;" parent="1" source="Pph7oQHx4fXSbqczSDpd-2" target="Pph7oQHx4fXSbqczSDpd-10" edge="1">
          <mxGeometry x="-0.0021" relative="1" as="geometry">
            <mxPoint x="307.5" y="150" as="sourcePoint" />
            <mxPoint as="offset" />
          </mxGeometry>
        </mxCell>
        <mxCell id="Pph7oQHx4fXSbqczSDpd-23" value="&lt;span class=&quot;notion-enable-hover&quot; data-token-index=&quot;0&quot; style=&quot;font-weight:600&quot;&gt;Public Verification of a Certificate&lt;/span&gt;" style="shape=umlFrame;whiteSpace=wrap;html=1;pointerEvents=0;width=228;height=27;fillColor=#eeeeee;strokeColor=#36393d;fontColor=light-dark(#000000,#000000);" parent="1" vertex="1">
          <mxGeometry x="18" y="17" width="601" height="431" as="geometry" />
        </mxCell>
        <mxCell id="Pph7oQHx4fXSbqczSDpd-26" value="alt" style="shape=umlFrame;whiteSpace=wrap;html=1;pointerEvents=0;width=32;height=26;fillColor=#eeeeee;strokeColor=#36393d;fontColor=light-dark(#000000,#000000);" parent="1" vertex="1">
          <mxGeometry x="77" y="241" width="374" height="149" as="geometry" />
        </mxCell>
        <mxCell id="Pph7oQHx4fXSbqczSDpd-27" value="" style="line;strokeWidth=1;fillColor=#eeeeee;align=left;verticalAlign=middle;spacingTop=-1;spacingLeft=3;spacingRight=3;rotatable=0;labelPosition=right;points=[];portConstraint=eastwest;strokeColor=#36393d;dashed=1;dashPattern=8 8;fontColor=light-dark(#000000,#000000);" parent="1" vertex="1">
          <mxGeometry x="79" y="315" width="372" height="8" as="geometry" />
        </mxCell>
        <mxCell id="Pph7oQHx4fXSbqczSDpd-29" value="[certificate doesn&#39;t exist]" style="text;align=center;verticalAlign=middle;resizable=0;points=[];autosize=1;fillColor=none;html=1;fontSize=10;fontColor=#4D4D4D;" parent="1" vertex="1">
          <mxGeometry x="131" y="239" width="124" height="24" as="geometry" />
        </mxCell>
        <mxCell id="Pph7oQHx4fXSbqczSDpd-31" value="Error: No certificate found" style="html=1;verticalAlign=bottom;endArrow=open;dashed=1;endSize=8;curved=0;rounded=0;strokeColor=light-dark(#000000,#000000);labelBackgroundColor=none;fontColor=light-dark(#000000,#000000);" parent="1" target="Pph7oQHx4fXSbqczSDpd-2" edge="1">
          <mxGeometry relative="1" as="geometry">
            <mxPoint x="377" y="297" as="sourcePoint" />
            <mxPoint x="297" y="297" as="targetPoint" />
          </mxGeometry>
        </mxCell>
        <mxCell id="Pph7oQHx4fXSbqczSDpd-39" value="verifier: Verifier" style="text;html=1;align=center;verticalAlign=middle;resizable=0;points=[];autosize=1;strokeColor=none;fillColor=none;labelBackgroundColor=default;" parent="1" vertex="1">
          <mxGeometry x="86.5" y="113" width="98" height="26" as="geometry" />
        </mxCell>
        <mxCell id="SJ6oFp_qbqLfnNsgaZ8e-1" value="return certificate info" style="html=1;verticalAlign=bottom;endArrow=open;dashed=1;endSize=8;curved=0;rounded=0;strokeColor=light-dark(#000000,#000000);labelBackgroundColor=none;fontColor=light-dark(#000000,#000000);" parent="1" edge="1">
          <mxGeometry relative="1" as="geometry">
            <mxPoint x="376" y="370" as="sourcePoint" />
            <mxPoint x="133" y="370" as="targetPoint" />
          </mxGeometry>
        </mxCell>
        <mxCell id="SJ6oFp_qbqLfnNsgaZ8e-2" value="[else]" style="text;align=center;verticalAlign=middle;resizable=0;points=[];autosize=1;fillColor=none;html=1;fontSize=10;fontColor=#4D4D4D;" parent="1" vertex="1">
          <mxGeometry x="131" y="318" width="42" height="24" as="geometry" />
        </mxCell>
      </root>
    </mxGraphModel>
  </diagram>
</mxfile>
